<?xml version="1.0" encoding="UTF-8" standalone="no"?>
<!DOCTYPE svg PUBLIC "-//W3C//DTD SVG 20010904//EN"
              "http://www.w3.org/TR/2001/REC-SVG-20010904/DTD/svg10.dtd">

<svg xmlns="http://www.w3.org/2000/svg"
     width="8.76389in" height="5.08333in"
     viewBox="0 0 631 366">
  <path id="Selection"
        fill="none" stroke="black" stroke-width="1"
        d="M 331.00,0.21
           C 331.00,0.21 346.00,1.00 346.00,1.00
             362.31,1.19 378.84,3.62 395.00,5.87
             452.60,13.89 509.63,33.07 558.00,65.67
             594.70,90.41 630.45,132.42 631.00,179.00
             631.64,234.43 597.06,274.35 553.00,303.67
             506.78,334.43 448.68,352.39 394.00,360.27
             394.00,360.27 350.00,365.00 350.00,365.00
             350.00,365.00 331.00,366.00 331.00,366.00
             331.00,366.00 300.00,366.00 300.00,366.00
             300.00,366.00 281.00,365.00 281.00,365.00
             267.44,364.84 239.02,360.77 225.00,358.41
             168.23,348.89 97.40,324.39 54.00,285.83
             54.00,285.83 41.04,274.00 41.04,274.00
             19.03,251.25 0.38,219.48 0.00,187.00
             -0.19,170.80 1.93,157.18 7.81,142.00
             12.86,128.98 20.36,117.02 28.89,106.00
             44.44,85.91 66.31,69.04 88.00,56.00
             131.56,29.81 181.94,14.20 232.00,6.42
             232.00,6.42 282.00,1.00 282.00,1.00
             286.45,0.98 287.47,1.07 292.00,0.21
             292.00,0.21 331.00,0.21 331.00,0.21 Z" />
</svg>
