<?xml version="1.0" encoding="UTF-8" standalone="no"?>
<!DOCTYPE svg PUBLIC "-//W3C//DTD SVG 20010904//EN"
              "http://www.w3.org/TR/2001/REC-SVG-20010904/DTD/svg10.dtd">

<svg xmlns="http://www.w3.org/2000/svg"
     width="5.68889in" height="5.68889in"
     viewBox="0 0 512 512">
  <path id="Selection #1"
        fill="white" stroke="white" stroke-width="1"
        d="M 72.00,205.00
           C 72.00,205.00 84.00,216.04 84.00,216.04
             84.00,216.04 103.00,235.00 103.00,235.00
             103.00,235.00 137.91,268.15 137.91,268.15
             137.91,268.15 205.00,333.96 205.00,333.96
             205.00,333.96 214.00,342.04 214.00,342.04
             214.00,342.04 242.00,369.00 242.00,369.00
             244.69,371.69 251.43,379.00 255.00,379.65
             259.52,380.48 266.06,372.93 269.00,370.00
             269.00,370.00 302.00,338.17 302.00,338.17
             302.00,338.17 326.99,314.09 326.99,314.09
             326.99,314.09 357.00,285.04 357.00,285.04
             357.00,285.04 369.00,274.00 369.00,274.00
             369.00,274.00 420.00,224.58 420.00,224.58
             420.00,224.58 446.00,199.43 446.00,199.43
             451.49,194.74 456.32,190.68 464.00,191.11
             476.67,191.81 484.24,204.44 479.52,216.00
             476.67,222.97 458.16,240.07 452.00,245.96
             452.00,245.96 419.00,277.04 419.00,277.04
             419.00,277.04 390.01,305.91 390.01,305.91
             390.01,305.91 361.04,333.08 361.04,333.08
             361.04,333.08 339.00,354.96 339.00,354.96
             339.00,354.96 318.00,375.00 318.00,375.00
             318.00,375.00 283.00,409.00 283.00,409.00
             277.40,414.53 268.85,423.30 261.00,424.67
             248.62,426.85 243.68,421.89 235.00,414.28
             235.00,414.28 206.00,386.42 206.00,386.42
             206.00,386.42 183.00,364.01 183.00,364.01
             183.00,364.01 171.00,352.96 171.00,352.96
             171.00,352.96 153.00,335.01 153.00,335.01
             153.00,335.01 143.00,325.96 143.00,325.96
             143.00,325.96 121.99,305.04 121.99,305.04
             121.99,305.04 113.00,296.96 113.00,296.96
             113.00,296.96 62.00,247.91 62.00,247.91
             55.52,241.88 36.19,223.93 32.92,217.00
             27.57,205.68 33.44,195.13 45.00,191.53
             56.88,189.61 64.13,197.26 72.00,205.00 Z" />
</svg>
